<svg width="10" height="6" viewBox="0 0 10 6" fill="none" xmlns="http://www.w3.org/2000/svg">
<path d="M9.93391 3.16022L7.66123 5.43291C7.57959 5.52825 7.43612 5.53936 7.34079 5.4577C7.24546 5.37606 7.23435 5.23259 7.31601 5.13726C7.32362 5.12837 7.3319 5.12007 7.34079 5.11247L9.22484 3.22614L0.227262 3.22614C0.101756 3.22614 0 3.12438 0 2.99886C0 2.87333 0.101756 2.77159 0.227262 2.77159L9.22484 2.77159L7.34079 0.887545C7.24546 0.805906 7.23435 0.662432 7.31601 0.567101C7.39766 0.471771 7.54112 0.460659 7.63645 0.542317C7.64534 0.549934 7.65364 0.558215 7.66123 0.567101L9.93393 2.8398C10.022 2.92841 10.022 3.07157 9.93391 3.16022Z" fill="#969696"/>
</svg>
