<svg width="17" height="33" viewBox="0 0 17 33" xmlns="http://www.w3.org/2000/svg">
	<path
		d="M9.02871 32.7819L16.5286 25.2821C16.8432 25.0127 16.8799 24.5392 16.6104 24.2246C16.341 23.91 15.8675 23.8733 15.5529 24.1428C15.5236 24.1679 15.4962 24.1953 15.4711 24.2246L9.24624 30.442L9.24624 0.749963C9.24624 0.335795 8.91044 0 8.49621 0C8.08198 0 7.74625 0.335795 7.74625 0.749963L7.74625 30.442L1.52889 24.2246C1.25948 23.91 0.786013 23.8733 0.471422 24.1428C0.156832 24.4123 0.120159 24.8857 0.389633 25.2003C0.41477 25.2296 0.442097 25.257 0.471422 25.2821L7.97131 32.782C8.26373 33.0727 8.73617 33.0727 9.02871 32.7819Z"
		fill="inherit" />
</svg>