<svg width="14" height="26" viewBox="0 0 14 26" xmlns="http://www.w3.org/2000/svg">
<path d="M7.38896 1.02252L12.9061 6.53964C13.1375 6.73782 13.1645 7.08612 12.9663 7.31754C12.7681 7.54896 12.4198 7.57594 12.1884 7.37771C12.1668 7.35922 12.1467 7.33911 12.1282 7.31754L7.54898 2.74385L7.54898 24.5862C7.54898 24.8909 7.30196 25.1379 6.99724 25.1379C6.69252 25.1379 6.44554 24.8909 6.44554 24.5862L6.44554 2.74385L1.87185 7.31754C1.67366 7.54896 1.32537 7.57594 1.09395 7.37771C0.862522 7.17947 0.835546 6.83123 1.03378 6.5998C1.05227 6.57823 1.07237 6.55808 1.09395 6.53964L6.61111 1.02247C6.82622 0.808594 7.17376 0.808594 7.38896 1.02252Z" fill="inherit"/>
</svg>
