<svg width="14" height="14" viewBox="0 0 14 14" xmlns="http://www.w3.org/2000/svg">
<path d="M6.17969 13.1523C6.85926 13.1523 7.41016 12.6014 7.41016 11.9219C7.41016 11.2423 6.85926 10.6914 6.17969 10.6914C5.50012 10.6914 4.94922 11.2423 4.94922 11.9219C4.94922 12.6014 5.50012 13.1523 6.17969 13.1523Z" fill="inherit"/>
<path d="M10.3086 13.1523C10.9882 13.1523 11.5391 12.6014 11.5391 11.9219C11.5391 11.2423 10.9882 10.6914 10.3086 10.6914C9.62902 10.6914 9.07812 11.2423 9.07812 11.9219C9.07812 12.6014 9.62902 13.1523 10.3086 13.1523Z" fill="inherit"/>
<path d="M0.410154 1.66799H2.12058L4.10074 8.59994L3.94543 8.91056C3.53648 9.72759 4.13014 10.6914 5.04612 10.6914H11.9491C12.1758 10.6914 12.3593 10.5079 12.3593 10.2812C12.3593 10.0545 12.1758 9.87106 11.9491 9.87106H5.04612C4.74154 9.87106 4.54248 9.55035 4.67922 9.27746L4.79259 9.05075H11.9491C12.1322 9.05075 12.2932 8.9294 12.3437 8.75314L13.9843 3.011C14.0195 2.88724 13.9947 2.75424 13.9174 2.65132C13.8397 2.54878 13.7184 2.4883 13.5898 2.4883H3.20803L2.82432 1.14526C2.77384 0.969034 2.61284 0.847656 2.42978 0.847656H0.410154C0.183448 0.847656 0 1.0311 0 1.25781C0 1.48452 0.183448 1.66799 0.410154 1.66799Z" fill="inherit"/>
</svg>
