<svg width="33" height="28" viewBox="0 0 33 28" xmlns="http://www.w3.org/2000/svg">
	<g clip-path="url(#clip0_88_1341)">
		<path
			d="M26.6929 21.125H13.7638C12.2306 21.125 10.8721 20.0979 10.4624 18.628L6.09125 3.371C5.84375 2.48825 5.03113 1.875 4.11125 1.875H0.6875C0.308 1.875 0 1.567 0 1.1875C0 0.808 0.308 0.5 0.6875 0.5H4.11125C5.64438 0.5 7.00288 1.52713 7.41263 2.997L8.27475 6H30.9361C31.5948 6 32.1984 6.3025 32.5903 6.8305C32.9835 7.3585 33.1004 8.024 32.9106 8.65375L29.953 18.76C29.4773 20.1845 28.1696 21.125 26.6929 21.125ZM8.668 7.375L11.7851 18.254C12.0313 19.1368 12.8439 19.75 13.7638 19.75H26.6929C27.5646 19.75 28.3649 19.1739 28.6399 18.3503L31.5948 8.2605C31.658 8.05013 31.6181 7.82875 31.4875 7.65275C31.3569 7.47537 31.1561 7.375 30.9361 7.375H8.668Z"
			fill="inherit" />
		<path
			d="M15.125 28C13.6084 28 12.375 26.7666 12.375 25.25C12.375 23.7334 13.6084 22.5 15.125 22.5C16.6416 22.5 17.875 23.7334 17.875 25.25C17.875 26.7666 16.6416 28 15.125 28ZM15.125 23.875C14.366 23.875 13.75 24.4924 13.75 25.25C13.75 26.0076 14.366 26.625 15.125 26.625C15.884 26.625 16.5 26.0076 16.5 25.25C16.5 24.4924 15.884 23.875 15.125 23.875Z"
			fill="inherit" />
		<path
			d="M24.75 28C23.2334 28 22 26.7666 22 25.25C22 23.7334 23.2334 22.5 24.75 22.5C26.2666 22.5 27.5 23.7334 27.5 25.25C27.5 26.7666 26.2666 28 24.75 28ZM24.75 23.875C23.991 23.875 23.375 24.4924 23.375 25.25C23.375 26.0076 23.991 26.625 24.75 26.625C25.509 26.625 26.125 26.0076 26.125 25.25C26.125 24.4924 25.509 23.875 24.75 23.875Z"
			fill="inherit" />
	</g>
	<defs>
		<clipPath id="clip0_88_1341">
			<rect width="33" height="28" fill="white" />
		</clipPath>
	</defs>
</svg>