<svg width="16" height="16" viewBox="0 0 16 16" xmlns="http://www.w3.org/2000/svg">
	<path
		d="M8 16C3.58866 16 0 12.4113 0 8C0 3.58866 3.58866 0 8 0C12.4113 0 16 3.58866 16 8C16 12.4113 12.4113 16 8 16ZM10.4713 7.52866L7.138 4.19534C7.008 4.06534 6.83734 4 6.66666 4C6.496 4 6.32531 4.06534 6.19531 4.19534C5.93466 4.456 5.93466 4.87734 6.19531 5.138L9.05734 8L6.19534 10.862C5.93469 11.1227 5.93469 11.544 6.19534 11.8047C6.456 12.0653 6.87734 12.0653 7.138 11.8047L10.4713 8.47131C10.732 8.21066 10.732 7.78934 10.4713 7.52866Z"
		fill="inherit" />
</svg>