<svg width="16" height="16" viewBox="0 0 16 16" xmlns="http://www.w3.org/2000/svg">
	<path
		d="M0 8C0 3.58866 3.58866 0 8 0C12.4113 0 16 3.58866 16 8C16 12.4113 12.4113 16 8 16C3.58866 16 0 12.4113 0 8ZM8.47134 10.4713L11.8047 7.138C11.9347 7.008 12 6.83734 12 6.66666C12 6.496 11.9347 6.32531 11.8047 6.19531C11.544 5.93466 11.1227 5.93466 10.862 6.19531L8 9.05734L5.138 6.19534C4.87734 5.93469 4.456 5.93469 4.19534 6.19534C3.93469 6.456 3.93469 6.87734 4.19534 7.138L7.52869 10.4713C7.78934 10.732 8.21066 10.732 8.47134 10.4713Z"
		fill="inherit" />
</svg>