<svg width="16" height="9" viewBox="0 0 16 9" xmlns="http://www.w3.org/2000/svg">
	<path
		d="M8 0.0158691C4.94303 0.0158691 2.17081 1.57687 0.125192 4.11234C-0.0417306 4.32006 -0.0417306 4.61027 0.125192 4.81799C2.17081 7.35652 4.94303 8.91752 8 8.91752C11.057 8.91752 13.8292 7.35652 15.8748 4.82105C16.0417 4.61332 16.0417 4.32312 15.8748 4.11539C13.8292 1.57687 11.057 0.0158691 8 0.0158691ZM8.21929 7.6009C6.19004 7.72004 4.51427 6.15905 4.64191 4.26202C4.74665 2.69797 6.10494 1.43024 7.78071 1.33248C9.80996 1.21335 11.4857 2.77434 11.3581 4.67136C11.2501 6.23236 9.89179 7.5001 8.21929 7.6009ZM8.11783 6.15294C7.02465 6.21709 6.1213 5.37702 6.19331 4.35672C6.24895 3.5136 6.9821 2.83238 7.88545 2.7774C8.97862 2.71325 9.88197 3.55331 9.80996 4.57361C9.75105 5.41979 9.0179 6.101 8.11783 6.15294Z"
		fill="inherit" />
</svg>