<svg width="33" height="33" viewBox="0 0 33 33" xmlns="http://www.w3.org/2000/svg">
	<path
		d="M23.9536 0H9.04645C4.05823 0 0 4.05823 0 9.04651V23.9536C0 28.9418 4.05823 33 9.04645 33H23.9536C28.9418 33 33 28.9418 33 23.9536V9.04651C33 4.05823 28.9418 0 23.9536 0ZM31.0512 23.9536C31.0512 27.8672 27.8673 31.0512 23.9536 31.0512H9.04645C5.13279 31.0512 1.9488 27.8673 1.9488 23.9536V9.04651C1.9488 5.13279 5.13279 1.9488 9.04645 1.9488H23.9536C27.8673 1.9488 31.0512 5.13279 31.0512 9.04651V23.9536Z"
		fill="inherit" />
	<path
		d="M16.5 7.44873C11.5091 7.44873 7.44879 11.5091 7.44879 16.4999C7.44879 21.4908 11.5091 25.5512 16.5 25.5512C21.4909 25.5512 25.5513 21.4907 25.5513 16.4999C25.5513 11.509 21.4909 7.44873 16.5 7.44873ZM16.5 23.6024C12.5837 23.6024 9.39753 20.4162 9.39753 16.4999C9.39753 12.5836 12.5837 9.39741 16.5 9.39741C20.4164 9.39741 23.6025 12.5836 23.6025 16.4999C23.6025 20.4162 20.4164 23.6024 16.5 23.6024Z"
		fill="inherit" />
	<path
		d="M26.0926 4.15747C24.5763 4.15747 23.3427 5.39117 23.3427 6.90749C23.3427 8.42382 24.5763 9.65745 26.0926 9.65745C27.6089 9.65745 28.8426 8.42375 28.8426 6.90743C28.8426 5.3911 27.6089 4.15747 26.0926 4.15747ZM26.0926 7.70858C25.6509 7.70858 25.2915 7.34919 25.2915 6.90743C25.2915 6.46567 25.6509 6.10628 26.0926 6.10628C26.5344 6.10628 26.8938 6.46573 26.8938 6.90743C26.8938 7.34913 26.5344 7.70858 26.0926 7.70858Z"
		fill="inherit" />
</svg>