<svg width="14" height="18" viewBox="0 0 14 18" xmlns="http://www.w3.org/2000/svg">
	<path
		d="M6.99992 0C3.33347 0 0.350708 2.98279 0.350708 6.64928C0.350708 7.85632 0.892032 9.1545 0.914718 9.20926C1.08955 9.62425 1.43453 10.2688 1.68329 10.6467L6.2423 17.5545C6.42887 17.8377 6.70501 18 6.99992 18C7.29483 18 7.57097 17.8377 7.75754 17.5549L12.3169 10.6467C12.5661 10.2688 12.9107 9.62425 13.0855 9.20926C13.1082 9.15489 13.6491 7.85671 13.6491 6.64928C13.6491 2.98279 10.6664 0 6.99992 0ZM12.3643 8.90574C12.2082 9.27771 11.8871 9.87731 11.6638 10.216L7.10435 17.1243C7.01439 17.2608 6.98584 17.2608 6.89588 17.1243L2.33648 10.216C2.11314 9.87731 1.79202 9.27731 1.63596 8.90534C1.62931 8.88931 1.13297 7.69439 1.13297 6.64928C1.13297 3.41421 3.76488 0.782269 6.99992 0.782269C10.235 0.782269 12.8669 3.41421 12.8669 6.64928C12.8669 7.69596 12.3694 8.894 12.3643 8.90574Z"
		fill="inherit" />
	<path
		d="M6.99998 3.12946C5.05876 3.12946 3.47974 4.70882 3.47974 6.6496C3.47974 8.59037 5.05876 10.1697 6.99998 10.1697C8.9412 10.1697 10.5202 8.59037 10.5202 6.6496C10.5202 4.70882 8.9412 3.12946 6.99998 3.12946ZM6.99998 9.38748C5.49058 9.38748 4.26201 8.15934 4.26201 6.6496C4.26201 5.13985 5.49058 3.91171 6.99998 3.91171C8.50938 3.91171 9.73795 5.13985 9.73795 6.6496C9.73795 8.15934 8.50938 9.38748 6.99998 9.38748Z"
		fill="inherit" />
</svg>