<svg width="25" height="25" viewBox="0 0 25 25" xmlns="http://www.w3.org/2000/svg">
	<path
		d="M24.1183 23.1462L18.7471 17.7749C20.3956 15.895 21.3052 13.5164 21.3052 10.9927C21.3052 8.23804 20.2324 5.6485 18.2847 3.70081C16.337 1.75311 13.7474 0.680237 10.9927 0.680237C8.23804 0.680237 5.6485 1.75311 3.70081 3.70081C1.75311 5.6485 0.680237 8.23804 0.680237 10.9927C0.680237 13.7474 1.75311 16.337 3.70081 18.2847C5.6485 20.2324 8.23804 21.3052 10.9927 21.3052C13.5164 21.3052 15.895 20.3956 17.7749 18.7471L23.1462 24.1183C23.2805 24.2526 23.4564 24.3198 23.6323 24.3198C23.8082 24.3198 23.9841 24.2526 24.1183 24.1183C24.3869 23.8498 24.3869 23.4147 24.1183 23.1462ZM4.67297 17.3125C2.98511 15.6243 2.05524 13.3799 2.05524 10.9927C2.05524 8.60562 2.98511 6.36118 4.67297 4.67297C6.36118 2.98511 8.60562 2.05524 10.9927 2.05524C13.3799 2.05524 15.6243 2.98511 17.3125 4.67297C19.0004 6.36118 19.9302 8.60562 19.9302 10.9927C19.9302 13.3799 19.0004 15.6243 17.3125 17.3125C15.6243 19.0004 13.3799 19.9302 10.9927 19.9302C8.60562 19.9302 6.36118 19.0004 4.67297 17.3125Z"
		fill="inherit" />
</svg>