<svg width="19" height="13" viewBox="0 0 19 13" xmlns="http://www.w3.org/2000/svg">
	<path
		d="M16.2481 12.4724H1.79242C1.32255 12.4718 0.872085 12.2849 0.539852 11.9526C0.207619 11.6204 0.0207567 11.1699 0.0202637 10.7V1.77233C0.0207567 1.30246 0.207619 0.851973 0.539852 0.519708C0.872085 0.187443 1.32255 0.000537915 1.79242 0H16.2481C16.718 0.000537915 17.1684 0.187443 17.5007 0.519708C17.8329 0.851973 18.0198 1.30246 18.0203 1.77233V10.7C18.0198 11.1699 17.8329 11.6204 17.5007 11.9526C17.1684 12.2849 16.718 12.4718 16.2481 12.4724ZM1.79242 0.677367C1.50213 0.67768 1.22383 0.793149 1.01857 0.998431C0.813324 1.20371 0.697899 1.48204 0.69763 1.77233V10.7C0.697899 10.9903 0.813324 11.2686 1.01857 11.4739C1.22383 11.6792 1.50213 11.7947 1.79242 11.795H16.2481C16.5384 11.7947 16.8167 11.6792 17.022 11.4739C17.2272 11.2686 17.3426 10.9903 17.3429 10.7V1.77233C17.3426 1.48204 17.2272 1.20371 17.022 0.998431C16.8167 0.793149 16.5384 0.67768 16.2481 0.677367H1.79242Z"
		fill="inherit" />
	<path
		d="M9.02026 8.22931C8.93771 8.22935 8.85797 8.19924 8.79605 8.14464L0.633789 0.939483L1.08204 0.431458L9.02026 7.4395L16.9588 0.432304L17.4071 0.94033L9.24481 8.14548C9.18273 8.19994 9.10284 8.22976 9.02026 8.22931Z"
		fill="inherit" />
	<path d="M0.449585 11.4088L5.93291 5.16109L6.44229 5.60815L0.958964 11.8558L0.449585 11.4088Z" fill="inherit" />
	<path d="M11.6155 5.60156L12.1249 5.1545L17.6083 11.4023L17.0989 11.8494L11.6155 5.60156Z" fill="inherit" />
</svg>