<svg width="29" height="30" viewBox="0 0 29 30" xmlns="http://www.w3.org/2000/svg">
	<path
		d="M20.0641 9.96301C20.0278 9.96301 16.9963 11.9083 10.9697 15.7988L12.2429 20.033L12.5158 17.3452C17.7056 12.6078 20.3036 10.2238 20.3097 10.1931C20.3145 10.172 20.3175 10.1504 20.3188 10.1287C20.3188 10.0182 20.2339 9.963 20.0641 9.96301Z"
		fill="inherit" />
	<path
		d="M18.0966 0.836609H10.847C4.96918 0.836609 0.195557 5.5595 0.195557 11.3749V18.5476C0.195557 24.3629 4.96918 29.0858 10.847 29.0858H18.0966C23.9744 29.0858 28.748 24.363 28.748 18.5476V11.3749C28.748 5.55953 23.9744 0.836609 18.0966 0.836609ZM23.5564 7.95645L20.6826 21.9108C20.5734 22.3895 20.2824 22.6288 19.8095 22.6288C19.6237 22.6274 19.4439 22.5624 19.3002 22.4447L15.0622 19.3335L12.7159 21.561C12.6053 21.6739 12.4555 21.7399 12.2975 21.7451C11.9702 21.7451 11.7519 21.5978 11.6428 21.3033L9.96937 16.2039L5.82234 14.8967C5.56771 14.8109 5.4222 14.6268 5.3858 14.3445C5.3858 14.0499 5.52525 13.8474 5.80416 13.737C17.1661 9.44141 22.8835 7.29364 22.9562 7.29365C23.1107 7.3026 23.2563 7.36814 23.3655 7.47776C23.4334 7.53632 23.4863 7.6104 23.5195 7.69373C23.5528 7.77706 23.5654 7.86718 23.5564 7.95644L23.5564 7.95645Z"
		fill="inherit" />
</svg>