<svg width="30" height="29" viewBox="0 0 30 29" xmlns="http://www.w3.org/2000/svg">
	<path
		d="M14.9788 7.10815C10.8478 7.10815 7.44568 10.4248 7.44568 14.5255C7.4454 16.093 7.95742 17.6177 8.90376 18.8673L7.99244 21.6412L10.9084 20.7367C12.1387 21.5323 13.5744 21.9515 15.0394 21.9428C19.1704 21.9428 22.5724 18.6261 22.5724 14.5255C22.5117 10.4248 19.1097 7.10815 14.9788 7.10815ZM19.3466 17.6176C19.0992 18.2723 18.1094 18.726 17.4223 18.7203C14.599 18.697 10.553 14.8448 10.6001 12.546C10.6034 12.2311 10.6694 11.9201 10.7944 11.6311C10.9193 11.3421 11.1006 11.0809 11.3277 10.8628C11.7211 10.4818 12.6501 10.3285 12.9071 10.9238C13.5369 12.5907 13.6991 12.6241 13.5753 12.9139C13.4549 13.1961 13.2672 13.4445 13.0286 13.6375C12.3864 14.1028 14.192 15.6364 14.4592 15.8373C16.1287 17.0916 16.3691 16.5936 16.4702 16.4858C17.0664 15.8499 17.0054 15.6227 17.2601 15.5699C17.5242 15.5153 19.3168 16.4899 19.3238 16.4943C19.6768 16.7171 19.4556 17.293 19.3466 17.6176Z"
		fill="inherit" />
	<path
		d="M18.4213 0.671936H11.1717C5.29388 0.671936 0.520264 5.39483 0.520264 11.2102V18.3829C0.520264 24.1982 5.29388 28.9212 11.1717 28.9212H18.4213C24.2991 28.9212 29.0728 24.1983 29.0728 18.3829V11.2102C29.0728 5.39486 24.2991 0.671936 18.4213 0.671936ZM14.9788 23.3298C13.4745 23.3214 11.9946 22.9489 10.6655 22.2444L5.68402 23.8123L7.32423 19.1086C6.50146 17.7425 6.06086 16.1805 6.04851 14.5859C6.04851 9.70124 10.058 5.78155 14.9788 5.78155C19.8995 5.72119 23.909 9.64094 23.909 14.5255C23.909 19.4101 19.8995 23.3298 14.9788 23.3298Z"
		fill="inherit" />
</svg>