<?xml version="1.0" encoding="utf-8"?><svg viewBox="0 0 33 33" xmlns="http://www.w3.org/2000/svg" xmlns:xlink="http://www.w3.org/1999/xlink"><style>:root>svg{display:none}:root>svg:target{display:block}</style><svg viewBox="0 0 17 33" id="arrow-down" xmlns="http://www.w3.org/2000/svg"><path d="M9.029 32.782l7.5-7.5a.75.75 0 10-1.058-1.057l-6.225 6.217V.75a.75.75 0 00-1.5 0v29.692L1.53 24.225A.75.75 0 10.47 25.282l7.5 7.5a.75.75 0 001.058 0z" fill="inherit"/></svg><svg fill="none" viewBox="0 0 10 6" id="arrow-right" xmlns="http://www.w3.org/2000/svg"><path d="M9.934 3.16L7.66 5.433a.227.227 0 11-.32-.32l1.884-1.887H.227a.227.227 0 010-.454h8.998L7.34.888a.227.227 0 11.32-.32L9.934 2.84a.227.227 0 010 .32z" fill="#969696"/></svg><svg viewBox="0 0 14 26" id="arrow-up" xmlns="http://www.w3.org/2000/svg"><path d="M7.389 1.023l5.517 5.517a.552.552 0 11-.778.778L7.55 2.744v21.842a.552.552 0 01-1.103 0V2.744L1.872 7.318a.552.552 0 11-.778-.778l5.517-5.518a.552.552 0 01.778 0z" fill="inherit"/></svg><svg viewBox="0 0 33 28" id="basket" xmlns="http://www.w3.org/2000/svg"><g clip-path="url(#dclip0_88_1341)" fill="inherit"><path d="M26.693 21.125h-12.93a3.434 3.434 0 01-3.3-2.497L6.09 3.371a2.058 2.058 0 00-1.98-1.496H.688A.688.688 0 01.688.5H4.11a3.434 3.434 0 013.302 2.497L8.275 6h22.661c.659 0 1.262.303 1.654.83.393.529.51 1.194.32 1.824L29.954 18.76a3.432 3.432 0 01-3.26 2.365zM8.668 7.375l3.117 10.879a2.055 2.055 0 001.979 1.496h12.929c.872 0 1.672-.576 1.947-1.4l2.955-10.09a.682.682 0 00-.107-.607.677.677 0 00-.552-.278H8.668zM15.125 28a2.753 2.753 0 01-2.75-2.75 2.753 2.753 0 012.75-2.75 2.753 2.753 0 012.75 2.75 2.753 2.753 0 01-2.75 2.75zm0-4.125c-.759 0-1.375.617-1.375 1.375s.616 1.375 1.375 1.375 1.375-.617 1.375-1.375-.616-1.375-1.375-1.375zM24.75 28A2.753 2.753 0 0122 25.25a2.753 2.753 0 012.75-2.75 2.753 2.753 0 012.75 2.75A2.753 2.753 0 0124.75 28zm0-4.125c-.759 0-1.375.617-1.375 1.375s.616 1.375 1.375 1.375 1.375-.617 1.375-1.375-.616-1.375-1.375-1.375z"/></g><defs><clipPath id="dclip0_88_1341"><path fill="#fff" d="M0 0h33v28H0z"/></clipPath></defs></svg><svg viewBox="0 0 14 14" id="basket-fill" xmlns="http://www.w3.org/2000/svg"><path d="M6.18 13.152a1.23 1.23 0 100-2.46 1.23 1.23 0 000 2.46zM10.309 13.152a1.23 1.23 0 100-2.46 1.23 1.23 0 000 2.46zM.41 1.668h1.71L4.1 8.6l-.155.31a1.23 1.23 0 001.101 1.781h6.903a.41.41 0 100-.82H5.046a.41.41 0 01-.367-.594l.114-.226h7.156a.41.41 0 00.395-.298l1.64-5.742a.411.411 0 00-.394-.523H3.208l-.384-1.343A.41.41 0 002.43.848H.41a.41.41 0 100 .82z" fill="inherit"/></svg><svg viewBox="0 0 12 12" id="check" xmlns="http://www.w3.org/2000/svg"><path d="M6 0C2.692 0 0 2.692 0 6s2.692 6 6 6 6-2.692 6-6-2.692-6-6-6zm3.353 4.421L5.52 8.226a.59.59 0 01-.827.015l-2.03-1.85a.61.61 0 01-.045-.842.595.595 0 01.842-.03l1.609 1.473 3.428-3.428a.6.6 0 01.857 0 .6.6 0 010 .857z" fill="inherit"/></svg><svg viewBox="0 0 12 12" id="check-circle" xmlns="http://www.w3.org/2000/svg"><path d="M6 0C2.692 0 0 2.692 0 6s2.692 6 6 6 6-2.692 6-6-2.692-6-6-6zm3.353 4.421L5.52 8.226a.59.59 0 01-.827.015l-2.03-1.85a.61.61 0 01-.045-.842.595.595 0 01.842-.03l1.609 1.473 3.428-3.428a.6.6 0 01.857 0 .6.6 0 010 .857z" fill="inherit"/></svg><svg viewBox="0 0 16 16" id="chevron-circle-down" xmlns="http://www.w3.org/2000/svg"><path d="M0 8c0-4.411 3.589-8 8-8s8 3.589 8 8-3.589 8-8 8-8-3.589-8-8zm8.471 2.471l3.334-3.333a.665.665 0 000-.943.666.666 0 00-.943 0L8 9.057 5.138 6.195a.666.666 0 10-.943.943l3.334 3.333c.26.261.682.261.942 0z" fill="inherit"/></svg><svg viewBox="0 0 16 16" id="chevron-circle-right" xmlns="http://www.w3.org/2000/svg"><path d="M8 16c-4.411 0-8-3.589-8-8s3.589-8 8-8 8 3.589 8 8-3.589 8-8 8zm2.471-8.471L7.138 4.195a.665.665 0 00-.943 0 .666.666 0 000 .943L9.057 8l-2.862 2.862a.666.666 0 10.943.943l3.333-3.334a.666.666 0 000-.942z" fill="inherit"/></svg><svg viewBox="0 0 18 18" id="clock" xmlns="http://www.w3.org/2000/svg"><path d="M9 0C4.037 0 0 4.037 0 9s4.037 9 9 9 9-4.037 9-9-4.037-9-9-9zm0 17.217C4.469 17.217.783 13.531.783 9 .783 4.469 4.469.783 9 .783c4.531 0 8.217 3.686 8.217 8.217 0 4.531-3.686 8.217-8.217 8.217z" fill="inherit"/><path d="M12.799 12.245L9.39 8.838V2.739a.391.391 0 00-.782 0V9c0 .104.041.204.114.277l3.522 3.522a.393.393 0 00.554 0 .391.391 0 000-.553z" fill="inherit"/></svg><svg viewBox="0 0 16 9" id="eye" xmlns="http://www.w3.org/2000/svg"><path d="M8 .016c-3.057 0-5.83 1.56-7.875 4.096a.56.56 0 000 .706c2.046 2.539 4.818 4.1 7.875 4.1 3.057 0 5.83-1.561 7.875-4.097a.56.56 0 000-.706C13.829 1.577 11.057.015 8 .015zM8.22 7.6c-2.03.119-3.706-1.442-3.578-3.339.105-1.564 1.463-2.832 3.139-2.93 2.029-.119 3.705 1.442 3.577 3.34C11.25 6.231 9.892 7.5 8.22 7.6zm-.102-1.448c-1.093.064-1.997-.776-1.925-1.796.056-.843.79-1.525 1.692-1.58 1.094-.064 1.997.776 1.925 1.797-.059.846-.792 1.527-1.692 1.579z" fill="inherit"/></svg><svg viewBox="0 0 33 33" id="insta" xmlns="http://www.w3.org/2000/svg"><path d="M23.954 0H9.046C4.058 0 0 4.058 0 9.047v14.907C0 28.942 4.058 33 9.046 33h14.908C28.942 33 33 28.942 33 23.954V9.047C33 4.058 28.942 0 23.954 0zm7.097 23.954a7.106 7.106 0 01-7.097 7.097H9.046a7.106 7.106 0 01-7.097-7.097V9.047a7.106 7.106 0 017.097-7.098h14.908a7.106 7.106 0 017.097 7.098v14.907z" fill="inherit"/><path d="M16.5 7.449c-4.99 0-9.051 4.06-9.051 9.05 0 4.992 4.06 9.052 9.051 9.052 4.99 0 9.051-4.06 9.051-9.051 0-4.991-4.06-9.051-9.051-9.051zm0 16.153A7.11 7.11 0 019.398 16.5 7.11 7.11 0 0116.5 9.397a7.11 7.11 0 017.102 7.103 7.11 7.11 0 01-7.102 7.102zM26.093 4.157a2.753 2.753 0 00-2.75 2.75 2.753 2.753 0 002.75 2.75 2.753 2.753 0 002.75-2.75 2.753 2.753 0 00-2.75-2.75zm0 3.552a.802.802 0 010-1.603.802.802 0 010 1.603z" fill="inherit"/></svg><svg viewBox="0 0 14 18" id="loc" xmlns="http://www.w3.org/2000/svg"><path d="M7 0A6.657 6.657 0 00.35 6.65c0 1.206.542 2.505.565 2.56.175.414.52 1.059.768 1.437l4.56 6.908c.186.283.462.445.757.445s.571-.162.758-.445l4.559-6.908c.25-.378.594-1.023.768-1.438.023-.054.564-1.352.564-2.56A6.657 6.657 0 007 0zm5.364 8.906a9.831 9.831 0 01-.7 1.31l-4.56 6.908c-.09.137-.118.137-.208 0l-4.56-6.908a9.827 9.827 0 01-.7-1.31c-.007-.017-.503-1.212-.503-2.257A5.874 5.874 0 017 .782a5.874 5.874 0 015.867 5.867c0 1.047-.498 2.245-.503 2.257z" fill="inherit"/><path d="M7 3.13a3.524 3.524 0 00-3.52 3.52c0 1.94 1.579 3.52 3.52 3.52s3.52-1.58 3.52-3.52c0-1.941-1.579-3.52-3.52-3.52zm0 6.257A2.741 2.741 0 014.262 6.65 2.741 2.741 0 017 3.912 2.741 2.741 0 019.738 6.65 2.741 2.741 0 017 9.387z" fill="inherit"/></svg><svg viewBox="0 0 25 25" id="loop" xmlns="http://www.w3.org/2000/svg"><path d="M24.118 23.146l-5.37-5.371a10.229 10.229 0 002.557-6.782c0-2.755-1.073-5.345-3.02-7.292A10.245 10.245 0 0010.993.68 10.245 10.245 0 003.7 3.7a10.245 10.245 0 00-3.02 7.292c0 2.754 1.072 5.344 3.02 7.292a10.245 10.245 0 007.292 3.02c2.523 0 4.902-.91 6.782-2.558l5.371 5.371a.685.685 0 00.972 0 .687.687 0 000-.972zM4.673 17.312a8.88 8.88 0 01-2.618-6.32 8.88 8.88 0 012.618-6.319 8.88 8.88 0 016.32-2.618 8.88 8.88 0 016.32 2.618 8.88 8.88 0 012.617 6.32 8.88 8.88 0 01-2.617 6.32 8.88 8.88 0 01-6.32 2.617 8.88 8.88 0 01-6.32-2.617z" fill="inherit"/></svg><svg viewBox="0 0 19 13" id="mail" xmlns="http://www.w3.org/2000/svg"><path d="M16.248 12.472H1.792A1.774 1.774 0 01.02 10.7V1.772A1.774 1.774 0 011.792 0h14.456a1.774 1.774 0 011.772 1.772V10.7a1.774 1.774 0 01-1.772 1.772zM1.792.677A1.096 1.096 0 00.698 1.772V10.7a1.096 1.096 0 001.094 1.095h14.456a1.096 1.096 0 001.095-1.095V1.772A1.096 1.096 0 0016.248.677H1.792z" fill="inherit"/><path d="M9.02 8.23a.339.339 0 01-.224-.085L.634.939l.448-.508L9.02 7.44 16.96.433l.448.508-8.162 7.205a.338.338 0 01-.225.084z" fill="inherit"/><path d="M.45 11.409L5.933 5.16l.51.447-5.484 6.248-.51-.447zM11.616 5.602l.509-.448 5.483 6.248-.51.447-5.482-6.247z" fill="inherit"/></svg><svg viewBox="0 0 29 30" id="telegram" xmlns="http://www.w3.org/2000/svg"><path d="M20.064 9.963c-.036 0-3.068 1.945-9.094 5.836l1.273 4.234.273-2.688c5.19-4.737 7.788-7.121 7.794-7.152a.398.398 0 00.009-.064c0-.11-.085-.166-.255-.166z" fill="inherit"/><path d="M18.097.837h-7.25C4.969.837.196 5.56.196 11.375v7.173c0 5.815 4.773 10.538 10.651 10.538h7.25c5.877 0 10.651-4.723 10.651-10.538v-7.173C28.748 5.56 23.974.837 18.097.837zm5.46 7.12L20.682 21.91c-.11.479-.4.718-.873.718a.814.814 0 01-.51-.184l-4.238-3.111-2.346 2.227a.614.614 0 01-.418.184c-.328 0-.546-.147-.655-.442l-1.674-5.1-4.147-1.306c-.254-.086-.4-.27-.436-.553 0-.294.14-.497.418-.607 11.362-4.296 17.08-6.443 17.152-6.443.155.009.3.074.41.184a.558.558 0 01.19.478z" fill="inherit"/></svg><svg viewBox="0 0 30 29" id="wp" xmlns="http://www.w3.org/2000/svg"><path d="M14.979 7.108c-4.131 0-7.533 3.317-7.533 7.417a7.19 7.19 0 001.458 4.342l-.912 2.774 2.916-.904a7.525 7.525 0 004.131 1.206c4.131 0 7.533-3.317 7.533-7.418-.06-4.1-3.462-7.417-7.593-7.417zm4.368 10.51c-.248.654-1.238 1.108-1.925 1.102-2.823-.023-6.869-3.875-6.822-6.174a2.367 2.367 0 01.728-1.683c.393-.381 1.322-.534 1.58.06.629 1.668.791 1.701.667 1.99a1.88 1.88 0 01-.546.724c-.643.466 1.163 2 1.43 2.2 1.67 1.255 1.91.757 2.011.649.596-.636.535-.863.79-.916.264-.055 2.057.92 2.064.924.353.223.132.799.023 1.124z" fill="inherit"/><path d="M18.421.672h-7.25C5.295.672.522 5.395.522 11.21v7.173c0 5.815 4.773 10.538 10.65 10.538h7.25c5.878 0 10.652-4.723 10.652-10.538V11.21C29.073 5.395 24.299.672 18.42.672zM14.98 23.33a9.321 9.321 0 01-4.313-1.086l-4.982 1.568 1.64-4.703a8.9 8.9 0 01-1.275-4.523c0-4.885 4.009-8.804 8.93-8.804 4.92-.06 8.93 3.859 8.93 8.743 0 4.885-4.01 8.805-8.93 8.805z" fill="inherit"/></svg></svg>